HIERARCHY
ROOT Pelvis
{
	OFFSET 0.000000 0.000000 0.000000
	CHANNELS 6 Xposition Yposition Zposition Xrotation Yrotation Zrotation
	JOINT LeftUpLeg_virtual
	{
		OFFSET 0.000000 0.000000 0.000000
		CHANNELS 3 Xrotation Yrotation Zrotation
		JOINT LeftUpLeg
		{
			OFFSET 18.735201 -5.666702 -4.541200
			CHANNELS 3 Xrotation Yrotation Zrotation
			JOINT LeftLeg
			{
				OFFSET -0.021200 -31.938179 0.493100
				CHANNELS 3 Xrotation Yrotation Zrotation
				JOINT LeftFoot
				{
					OFFSET 0.021200 -31.938179 -4.336299
					CHANNELS 3 Xrotation Yrotation Zrotation
					JOINT LeftToeBase
					{
						OFFSET 0.943001 -26.722000 15.023500
						CHANNELS 3 Xrotation Yrotation Zrotation
						End Site
						{
							OFFSET 0 0 0
						}
					}
				}
			}
		}
	}
	JOINT RightUpLeg_virtual
	{
		OFFSET 0.000000 0.000000 0.000000
		CHANNELS 3 Xrotation Yrotation Zrotation
		JOINT RightUpLeg
		{
			OFFSET -18.735201 -5.666702 -4.541200
			CHANNELS 3 Xrotation Yrotation Zrotation
			JOINT RightLeg
			{
				OFFSET 0.018946 -31.938133 0.493100
				CHANNELS 3 Xrotation Yrotation Zrotation
				JOINT RightFoot
				{
					OFFSET -0.018946 -31.938126 -4.336299
					CHANNELS 3 Xrotation Yrotation Zrotation
					JOINT RightToeBase
					{
						OFFSET -0.943001 -26.722004 15.023500
						CHANNELS 3 Xrotation Yrotation Zrotation
						End Site
						{
							OFFSET 0 0 0
						}
					}
				}
			}
		}
	}
	JOINT Hips_virtual
	{
		OFFSET 0.000000 0.000000 0.000000
		CHANNELS 3 Xrotation Yrotation Zrotation
		JOINT Hips
		{
			OFFSET -0.000000 -0.000000 -0.000000
			CHANNELS 3 Xrotation Yrotation Zrotation
			JOINT Spine
			{
				OFFSET 0.000000 10.199997 -0.299500
				CHANNELS 3 Xrotation Yrotation Zrotation
				JOINT Spine1
				{
					OFFSET 0.000000 11.900002 -1.516600
					CHANNELS 3 Xrotation Yrotation Zrotation
					JOINT Spine2
					{
						OFFSET 0.000000 13.600006 -2.842500
						CHANNELS 3 Xrotation Yrotation Zrotation
						JOINT Neck_virtual
						{
							OFFSET 0.000000 0.000000 0.000000
							CHANNELS 3 Xrotation Yrotation Zrotation
							JOINT Neck
							{
								OFFSET 0.000000 9.624100 -2.890100
								CHANNELS 3 Xrotation Yrotation Zrotation
								JOINT Head
								{
									OFFSET 0.000000 14.068802 -1.351900
									CHANNELS 3 Xrotation Yrotation Zrotation
									End Site
									{
										OFFSET 0 0 0
									}
								}
							}
						}
						JOINT LeftShoulder_virtual
						{
							OFFSET 0.000000 0.000000 0.000000
							CHANNELS 3 Xrotation Yrotation Zrotation
							JOINT LeftShoulder
							{
								OFFSET 15.263000 10.923401 -0.547700
								CHANNELS 3 Xrotation Yrotation Zrotation
								JOINT LeftArm
								{
									OFFSET 25.438599 -2.830597 -13.032500
									CHANNELS 3 Xrotation Yrotation Zrotation
									JOINT LeftForeArm
									{
										OFFSET 29.960503 0.000000 0.000000
										CHANNELS 3 Xrotation Yrotation Zrotation
										JOINT LeftHand
										{
											OFFSET 27.849251 0.000000 0.000000
											CHANNELS 3 Xrotation Yrotation Zrotation
											End Site
											{
												OFFSET 0 0 0
											}
										}
									}
								}
							}
						}
						JOINT RightShoulder_virtual
						{
							OFFSET 0.000000 0.000000 0.000000
							CHANNELS 3 Xrotation Yrotation Zrotation
							JOINT RightShoulder
							{
								OFFSET -15.263000 10.923401 -0.547700
								CHANNELS 3 Xrotation Yrotation Zrotation
								JOINT RightArm
								{
									OFFSET -25.438599 -2.830597 -13.032500
									CHANNELS 3 Xrotation Yrotation Zrotation
									JOINT RightForeArm
									{
										OFFSET -29.960503 0.000000 0.000000
										CHANNELS 3 Xrotation Yrotation Zrotation
										JOINT RightHand
										{
											OFFSET -27.849251 0.000000 0.000000
											CHANNELS 3 Xrotation Yrotation Zrotation
											End Site
											{
												OFFSET 0 0 0
											}
										}
									}
								}
							}
						}
					}
				}
			}
		}
	}
}
MOTION
Frames: 9
Frame Time: 0.03333333
-1.261647 91.808723 2.741293 0.000000 0.000000 0.000000 -21.920717 -3.521298 -1.495033 0.012343 29.659434 13.642198 39.854950 2.667746 -12.165870 -22.729304 22.785579 7.320972 0.000000 0.000000 0.000000 -23.123351 -1.735587 -1.644282 24.875423 -13.930290 3.684141 25.232242 -13.154611 2.583718 -26.905498 -21.853349 -0.381285 0.000000 0.000000 0.000000 -23.024113 -2.037575 -1.410616 -1.525425 -1.619538 -0.633201 11.520545 -3.293618 -0.884661 4.541158 -2.060944 0.024060 0.000000 0.000000 0.000000 3.540900 -1.991502 -0.357751 0.757500 0.207722 -0.659243 0.000000 0.000000 0.000000 3.267975 -2.001483 -0.579246 -0.275365 -16.063879 -10.894715 -21.650663 2.409568 -36.703842 2.125177 -59.439448 2.029210 0.000000 0.000000 0.000000 3.866524 -1.713147 -0.633527 0.074444 14.711481 14.066215 -12.789899 -4.695136 62.818138 0.153901 39.151382 0.840454 0.000000 0.000000 0.000000 
-1.638361 91.824570 2.834963 0.000000 0.000000 0.000000 -22.067629 -3.653565 -1.608586 -0.479271 28.815789 14.099022 40.760622 2.030062 -11.540341 -20.621758 22.595980 5.962376 0.000000 0.000000 0.000000 -23.111596 -1.851234 -1.828706 25.078470 -13.702904 3.717911 25.323852 -13.114499 2.376382 -27.303598 -21.724957 -0.431582 0.000000 0.000000 0.000000 -23.129826 -2.283194 -1.587879 -1.473484 -1.570613 -0.684008 11.552386 -3.357197 -0.911012 4.537343 -2.095821 0.025665 0.000000 0.000000 0.000000 3.605822 -2.015928 -0.338299 0.752315 0.207004 -0.644901 0.000000 0.000000 0.000000 3.293133 -2.036191 -0.613807 -0.256919 -16.154004 -10.970561 -21.695645 2.192000 -36.820604 2.116938 -59.462090 1.963998 0.000000 0.000000 0.000000 3.834821 -1.741710 -0.612086 0.111396 14.677945 14.087283 -12.645458 -4.834939 62.888912 0.212085 39.233904 0.808183 0.000000 0.000000 0.000000 
-2.287369 91.962700 3.077366 0.000000 0.000000 0.000000 -22.417045 -3.978099 -2.007687 -2.418286 27.739435 15.428533 43.237959 1.452688 -10.650515 -16.645082 22.147447 4.567882 0.000000 0.000000 0.000000 -23.164969 -2.397460 -2.346176 25.125268 -13.548121 3.634184 25.544330 -12.802789 2.262510 -27.989941 -21.516334 -0.137352 0.000000 0.000000 0.000000 -23.194303 -2.893677 -2.098511 -1.517671 -1.346146 -0.764535 11.551434 -3.447590 -0.897821 4.527506 -2.135400 0.030446 0.000000 0.000000 0.000000 3.690303 -2.059209 -0.317096 0.743468 0.204555 -0.624032 0.000000 0.000000 0.000000 3.330372 -2.085311 -0.642048 -0.248512 -16.300065 -11.050723 -21.908411 2.023399 -36.969553 2.104689 -59.319565 1.893703 0.000000 0.000000 0.000000 3.819719 -1.781671 -0.584682 0.134927 14.650064 14.135719 -12.460739 -5.003915 62.977889 0.295232 39.255880 0.737576 0.000000 0.000000 0.000000 
-2.964880 92.184715 3.417370 0.000000 0.000000 0.000000 -22.844821 -4.688871 -2.669870 -5.354976 26.285577 17.081349 46.500553 1.091027 -9.645924 -11.974297 21.278935 3.185101 0.000000 0.000000 0.000000 -23.308388 -3.463204 -3.175095 24.924545 -13.494901 3.426143 26.054306 -12.158733 2.238183 -28.565236 -21.231886 0.501070 0.000000 0.000000 0.000000 -23.277951 -3.972191 -2.855116 -1.499055 -1.161597 -0.938616 11.543558 -3.536012 -0.847030 4.512610 -2.170047 0.037364 0.000000 0.000000 0.000000 3.772329 -2.107631 -0.298246 0.731126 0.200034 -0.601596 0.000000 0.000000 0.000000 3.367276 -2.137513 -0.659005 -0.244964 -16.460597 -11.086988 -22.203830 1.970900 -37.120077 2.095142 -59.106831 1.832233 0.000000 0.000000 0.000000 3.812808 -1.823360 -0.556334 0.143553 14.627721 14.188378 -12.295470 -5.171545 63.042680 0.394312 39.217802 0.640105 0.000000 0.000000 0.000000 
-3.505428 92.353401 3.734129 0.000000 0.000000 0.000000 -23.216506 -6.066154 -3.633659 -8.179545 24.062178 18.203627 49.667718 0.809397 -8.351792 -8.718867 19.682428 1.806098 0.000000 0.000000 0.000000 -23.539403 -5.053661 -4.241644 24.495686 -13.334693 3.056210 26.715861 -11.115116 2.176198 -29.013056 -20.850776 1.314798 0.000000 0.000000 0.000000 -23.392114 -5.632024 -3.814211 -1.384856 -1.089832 -1.167328 11.560798 -3.607264 -0.780803 4.496620 -2.197531 0.046166 0.000000 0.000000 0.000000 3.838724 -2.146340 -0.285566 0.713300 0.194154 -0.581245 0.000000 0.000000 0.000000 3.391648 -2.181526 -0.666865 -0.241563 -16.611030 -11.065842 -22.482970 2.043475 -37.253607 2.101514 -58.955652 1.784717 0.000000 0.000000 0.000000 3.816297 -1.856018 -0.535343 0.145923 14.595914 14.246753 -12.172252 -5.269699 63.052468 0.501470 39.135997 0.530471 0.000000 0.000000 0.000000 
-3.895401 92.438042 4.140366 0.000000 0.000000 0.000000 -23.477307 -8.155598 -4.822750 -9.382285 21.173279 18.004051 51.278338 0.441831 -6.726329 -7.971015 17.135698 -0.167506 0.000000 0.000000 0.000000 -23.813463 -7.150479 -5.460798 24.026278 -12.892207 2.533662 27.220426 -9.663183 2.000869 -29.469223 -20.379148 2.281607 0.000000 0.000000 0.000000 -23.603781 -7.787629 -4.943647 -1.164860 -0.993054 -1.275088 11.610000 -3.666943 -0.722886 4.471816 -2.218792 0.056615 0.000000 0.000000 0.000000 3.869524 -2.168517 -0.278626 0.692029 0.187368 -0.566041 0.000000 0.000000 0.000000 3.401196 -2.206596 -0.669742 -0.220393 -16.735126 -10.976715 -22.659033 2.217104 -37.392134 2.127069 -58.952141 1.745717 0.000000 0.000000 0.000000 3.829826 -1.875063 -0.526058 0.152291 14.569282 14.316405 -12.080712 -5.288519 62.987499 0.607768 39.083551 0.436378 0.000000 0.000000 0.000000 
-4.125254 92.429977 4.667675 0.000000 0.000000 0.000000 -23.708995 -10.745473 -6.122552 -8.523881 18.138687 16.508451 50.423373 -0.067328 -4.959554 -9.696289 13.809116 -3.213008 0.000000 0.000000 0.000000 -24.128880 -9.585203 -6.754082 23.618570 -12.273980 1.827923 27.505638 -7.901051 1.736243 -30.120082 -19.871667 3.313916 0.000000 0.000000 0.000000 -23.959013 -10.272130 -6.207987 -1.063385 -0.796302 -1.422451 11.700701 -3.721029 -0.694982 4.424378 -2.232862 0.067360 0.000000 0.000000 0.000000 3.867608 -2.173512 -0.275959 0.669979 0.179555 -0.556341 0.000000 0.000000 0.000000 3.398379 -2.210983 -0.673310 -0.177758 -16.829689 -10.837868 -22.738277 2.438670 -37.545126 2.164866 -59.064484 1.714294 0.000000 0.000000 0.000000 3.854362 -1.879196 -0.524871 0.167954 14.551786 14.397535 -11.979621 -5.255247 62.839182 0.705886 39.122251 0.362841 0.000000 0.000000 0.000000 
-4.170589 92.401985 5.281569 0.000000 0.000000 0.000000 -24.074433 -13.601763 -7.518657 -6.498895 15.425484 14.422457 47.778604 -0.599901 -3.325716 -12.558976 10.653080 -6.765814 0.000000 0.000000 0.000000 -24.529117 -12.201806 -8.106106 23.190352 -11.737114 0.908375 27.688989 -5.995039 1.490033 -30.738201 -19.428041 4.238219 0.000000 0.000000 0.000000 -24.466791 -12.928413 -7.617706 -1.053530 -0.534843 -1.352498 11.872027 -3.759065 -0.695564 4.372583 -2.239054 0.081626 0.000000 0.000000 0.000000 3.846888 -2.165587 -0.276336 0.647995 0.169637 -0.551398 0.000000 0.000000 0.000000 3.388798 -2.201417 -0.674939 -0.120256 -16.899717 -10.664245 -22.772462 2.638646 -37.705793 2.209508 -59.157566 1.695368 0.000000 0.000000 0.000000 3.892435 -1.872696 -0.522538 0.186524 14.543165 14.488457 -11.845798 -5.201768 62.636147 0.797679 39.255532 0.307461 0.000000 0.000000 0.000000 
-4.049136 92.435349 5.942333 0.000000 0.000000 0.000000 -24.665628 -16.528173 -8.997035 -4.484543 13.360846 12.301556 44.767707 -0.853758 -2.104714 -14.488115 8.440261 -9.833273 0.000000 0.000000 0.000000 -25.094209 -14.915226 -9.608620 22.704551 -11.473844 -0.136028 27.947128 -4.107705 1.329364 -30.998151 -19.145743 4.744371 0.000000 0.000000 0.000000 -25.142555 -15.640626 -9.142596 -1.065864 -0.395729 -1.205233 12.110529 -3.769579 -0.700658 4.333095 -2.233176 0.103020 0.000000 0.000000 0.000000 3.822462 -2.151307 -0.272453 0.631806 0.158253 -0.550865 0.000000 0.000000 0.000000 3.379751 -2.182554 -0.665157 -0.055653 -16.954623 -10.469758 -22.791522 2.793794 -37.892862 2.247885 -59.136918 1.686644 0.000000 0.000000 0.000000 3.935429 -1.859507 -0.508860 0.199482 14.556404 14.576577 -11.667657 -5.164027 62.426911 0.876675 39.471117 0.269572 0.000000 0.000000 0.000000 
